# This file uses centimeters as units for non-parametric coordinates.

mtllib track smily face.mtl
g default
v 45.248288 -1.236501 -121.213091
v 62.201052 -1.236501 -118.598212
v 77.494360 -1.236501 -109.951925
v 89.631196 -1.236501 -98.441482
v 97.423524 -1.236501 -83.937474
v 99.757520 -1.006229 -68.058663
v 82.009654 -1.006229 -68.058663
v 80.235846 -1.236501 -78.641088
v 75.134653 -1.236501 -88.452715
v 67.571013 -1.236501 -96.998541
v 57.372590 -1.236501 -103.180010
v 45.248288 -1.236501 -105.293086
v 45.248288 4.357214 -121.213087
v 62.201052 4.357214 -118.598208
v 57.372590 4.357214 -103.180006
v 45.248288 4.357214 -105.293082
v 77.494360 4.357214 -109.951921
v 67.571013 4.357214 -96.998539
v 89.631196 4.357214 -98.441480
v 75.134653 4.357215 -88.452713
v 97.423524 4.357214 -83.937471
v 80.235846 4.357214 -78.641085
v 99.757516 4.341139 -68.058663
v 81.917586 4.357214 -67.859657
v 45.248275 4.357214 -121.213095
v 28.295507 4.357214 -118.598208
v 33.123969 4.357214 -103.180006
v 45.248275 4.357214 -105.293090
v 13.002203 4.357214 -109.951921
v 22.925550 4.357214 -96.998539
v 0.865363 4.357214 -98.441480
v 15.361906 4.357215 -88.452713
v -6.926961 4.357214 -83.937471
v 10.260709 4.357214 -78.641085
v -9.340117 4.341139 -68.058663
v 8.407757 4.341139 -68.058663
v 45.248275 -1.236501 -121.213099
v 45.248275 -1.236501 -105.293094
v 33.123969 -1.236501 -103.180010
v 28.295507 -1.236501 -118.598212
v 22.925550 -1.236501 -96.998541
v 13.002203 -1.236501 -109.951925
v 15.361906 -1.236501 -88.452715
v 0.865372 -1.236501 -98.441482
v 10.260713 -1.236501 -78.641088
v -6.926961 -1.236501 -83.937474
v 8.407753 -1.006229 -68.058663
v -9.340117 -1.006229 -68.058663
vt 0.343750 0.843750
vt 0.351397 0.892034
vt 0.373591 0.935591
vt 0.408159 0.970159
vt 0.451716 0.992353
vt 0.500000 1.000000
vt 0.395561 0.841678
vt 0.400350 0.874069
vt 0.414879 0.903552
vt 0.436422 0.929335
vt 0.465468 0.948248
vt 0.500000 0.955212
vt 0.500000 1.000000
vt 0.451716 0.992353
vt 0.465468 0.948248
vt 0.500000 0.955212
vt 0.408159 0.970159
vt 0.436422 0.929335
vt 0.373591 0.935591
vt 0.414879 0.903552
vt 0.351397 0.892034
vt 0.400350 0.874069
vt 0.343750 0.843750
vt 0.395561 0.841678
vt 0.500000 1.000000
vt 0.451716 0.992353
vt 0.465468 0.948248
vt 0.500000 0.955212
vt 0.408159 0.970159
vt 0.436422 0.929335
vt 0.373591 0.935591
vt 0.414879 0.903552
vt 0.351397 0.892034
vt 0.400350 0.874069
vt 0.343750 0.843750
vt 0.395561 0.841678
vt 0.500000 1.000000
vt 0.451716 0.992353
vt 0.465468 0.948248
vt 0.500000 0.955212
vt 0.408159 0.970159
vt 0.436422 0.929335
vt 0.373591 0.935591
vt 0.414879 0.903552
vt 0.351397 0.892034
vt 0.400350 0.874069
vt 0.343750 0.843750
vt 0.395561 0.841678
vt 0.500000 1.000000
vt 0.500000 0.955212
vt 0.465468 0.948248
vt 0.451716 0.992353
vt 0.436422 0.929335
vt 0.408159 0.970159
vt 0.414879 0.903552
vt 0.373591 0.935591
vt 0.400350 0.874069
vt 0.351397 0.892034
vt 0.395561 0.841678
vt 0.343750 0.843750
vt 0.500000 1.000000
vt 0.451716 0.992353
vt 0.465468 0.948248
vt 0.500000 0.955212
vt 0.408159 0.970159
vt 0.436422 0.929335
vt 0.373591 0.935591
vt 0.414879 0.903552
vt 0.351397 0.892034
vt 0.400350 0.874069
vt 0.343750 0.843750
vt 0.395561 0.841678
vn -0.000000 1.000000 0.000000
vn -0.000000 1.000000 0.000000
vn -0.000000 1.000000 0.000000
vn -0.000000 1.000000 0.000000
vn -0.000000 1.000000 0.000000
vn -0.000000 1.000000 -0.000000
vn 0.000000 1.000000 -0.000000
vn 0.000000 1.000000 -0.000000
vn -0.001425 0.999988 -0.004624
vn -0.001425 0.999928 -0.011876
vn -0.002137 0.999839 -0.017813
vn -0.000000 0.999763 -0.021755
vn -0.152442 -0.000001 0.988312
vn -0.152442 -0.000001 0.988312
vn -0.152442 -0.000001 0.988312
vn -0.152442 -0.000001 0.988312
vn 0.171697 0.000001 -0.985150
vn 0.171696 0.000001 -0.985150
vn 0.171696 0.000001 -0.985150
vn 0.171695 0.000001 -0.985150
vn -0.492154 -0.000001 0.870508
vn -0.492154 -0.000001 0.870508
vn -0.492154 -0.000001 0.870508
vn -0.492154 -0.000000 0.870508
vn 0.518339 0.000000 -0.855175
vn 0.518339 0.000000 -0.855175
vn 0.518339 0.000000 -0.855175
vn 0.518339 0.000001 -0.855175
vn -0.688135 -0.000001 0.725583
vn -0.688135 -0.000001 0.725583
vn -0.688135 -0.000001 0.725583
vn -0.688135 -0.000001 0.725583
vn 0.748828 0.000000 -0.662764
vn 0.748828 0.000000 -0.662764
vn 0.748828 0.000000 -0.662764
vn 0.748828 0.000000 -0.662764
vn -0.880915 -0.000001 0.473275
vn -0.880915 -0.000001 0.473275
vn -0.880915 -0.000001 0.473275
vn -0.880915 -0.000000 0.473274
vn 0.887248 0.000000 -0.461292
vn 0.887248 0.000000 -0.461292
vn 0.887248 0.000000 -0.461292
vn 0.887248 0.000000 -0.461292
vn -0.989369 0.000000 0.145425
vn -0.989369 -0.000001 0.145425
vn -0.989369 -0.000001 0.145425
vn -0.989369 -0.000002 0.145425
vn 0.986241 0.000000 -0.165312
vn 0.987099 0.011337 -0.159710
vn 0.987099 0.011337 -0.159710
vn 0.987798 0.022674 -0.154082
vn -0.000000 1.000000 0.000000
vn -0.000000 1.000000 0.000000
vn -0.000000 1.000000 0.000000
vn -0.000000 1.000000 0.000000
vn -0.000000 1.000000 0.000000
vn 0.000000 1.000000 -0.000000
vn -0.000000 1.000000 -0.000000
vn -0.000000 1.000000 -0.000000
vn 0.001423 0.999988 -0.004617
vn 0.001423 0.999929 -0.011869
vn 0.002134 0.999839 -0.017803
vn 0.000000 0.999763 -0.021755
vn 0.152442 -0.000001 0.988312
vn 0.152443 -0.000001 0.988312
vn 0.152443 -0.000001 0.988312
vn 0.152443 -0.000001 0.988312
vn -0.171697 0.000001 -0.985150
vn -0.171697 0.000001 -0.985150
vn -0.171697 0.000001 -0.985150
vn -0.171697 0.000001 -0.985150
vn 0.492154 -0.000001 0.870508
vn 0.492154 -0.000001 0.870508
vn 0.492154 -0.000001 0.870508
vn 0.492154 -0.000000 0.870508
vn -0.518339 0.000000 -0.855175
vn -0.518339 0.000000 -0.855175
vn -0.518339 0.000000 -0.855175
vn -0.518339 0.000001 -0.855175
vn 0.688135 -0.000000 0.725582
vn 0.688135 -0.000000 0.725583
vn 0.688135 -0.000000 0.725583
vn 0.688135 -0.000000 0.725583
vn -0.748828 0.000000 -0.662764
vn -0.748828 0.000000 -0.662764
vn -0.748828 0.000000 -0.662764
vn -0.748828 0.000000 -0.662764
vn 0.880915 -0.000000 0.473275
vn 0.880915 -0.000000 0.473275
vn 0.880915 -0.000000 0.473275
vn 0.880915 -0.000000 0.473274
vn -0.887248 0.000000 -0.461292
vn -0.887248 0.000000 -0.461292
vn -0.887248 0.000000 -0.461292
vn -0.887248 0.000000 -0.461292
vn 0.988648 -0.000002 0.150248
vn 0.988648 -0.000001 0.150248
vn 0.988648 -0.000001 0.150248
vn 0.988648 -0.000000 0.150248
vn -0.985014 0.000001 -0.172473
vn -0.985014 0.000000 -0.172473
vn -0.985014 0.000000 -0.172473
vn -0.985014 -0.000001 -0.172474
s 1
g pCylinder3 track
usemtl lambert2SG
f 1/13/1 12/16/2 2/14/3
f 2/14/3 12/16/2 11/15/4
f 2/14/3 11/15/4 3/17/5
f 3/17/5 11/15/4 10/18/6
f 3/17/5 10/18/6 4/19/7
f 4/19/7 10/18/6 9/20/8
f 4/19/7 9/20/8 5/21/9
f 5/21/9 9/20/8 8/22/10
f 5/21/9 8/22/10 6/23/11
f 6/23/11 8/22/10 7/24/12
s 2
usemtl initialShadingGroup
f 1/6/13 2/5/14 13/25/15
f 13/25/15 2/5/14 14/26/16
s 3
f 11/11/17 12/12/18 15/27/19
f 15/27/19 12/12/18 16/28/20
s 4
f 2/5/21 3/4/22 14/26/23
f 14/26/23 3/4/22 17/29/24
s 5
f 10/10/25 11/11/26 18/30/27
f 18/30/27 11/11/26 15/27/28
s 6
f 3/4/29 4/3/30 17/29/31
f 17/29/31 4/3/30 19/31/32
s 7
f 9/9/33 10/10/34 20/32/35
f 20/32/35 10/10/34 18/30/36
s 8
f 4/3/37 5/2/38 19/31/39
f 19/31/39 5/2/38 21/33/40
s 9
f 8/8/41 9/9/42 22/34/43
f 22/34/43 9/9/42 20/32/44
s 10
f 5/2/45 6/1/46 21/33/47
f 21/33/47 6/1/46 23/35/48
s 11
f 8/8/49 22/34/50 7/7/51
f 7/7/51 22/34/50 24/36/52
s 12
usemtl lambert2SG
f 37/49/53 40/52/54 38/50/55
f 38/50/55 40/52/54 39/51/56
f 40/52/54 42/54/57 39/51/56
f 39/51/56 42/54/57 41/53/58
f 42/54/57 44/56/59 41/53/58
f 41/53/58 44/56/59 43/55/60
f 44/56/59 46/58/61 43/55/60
f 43/55/60 46/58/61 45/57/62
f 46/58/61 48/60/63 45/57/62
f 45/57/62 48/60/63 47/59/64
s 13
usemtl initialShadingGroup
f 37/61/65 25/37/66 40/62/67
f 40/62/67 25/37/66 26/38/68
s 14
f 39/63/69 27/39/70 38/64/71
f 38/64/71 27/39/70 28/40/72
s 15
f 40/62/73 26/38/74 42/65/75
f 42/65/75 26/38/74 29/41/76
s 16
f 41/66/77 30/42/78 39/63/79
f 39/63/79 30/42/78 27/39/80
s 17
f 42/65/81 29/41/82 44/67/83
f 44/67/83 29/41/82 31/43/84
s 18
f 43/68/85 32/44/86 41/66/87
f 41/66/87 32/44/86 30/42/88
s 19
f 44/67/89 31/43/90 46/69/91
f 46/69/91 31/43/90 33/45/92
s 20
f 45/70/93 34/46/94 43/68/95
f 43/68/95 34/46/94 32/44/96
s 21
f 46/69/97 33/45/98 48/71/99
f 48/71/99 33/45/98 35/47/100
s 22
f 36/48/101 34/46/102 47/72/103
f 47/72/103 34/46/102 45/70/104
g default
v -9.340116 -1.006229 45.441579
v 8.407750 -1.006229 45.441579
v -9.340116 -1.006229 -68.058656
v 8.407750 -1.006229 -68.058656
v -9.340116 4.341139 45.441579
v 8.407750 4.341139 45.441579
v 8.407750 4.341139 -68.058656
v -9.340116 4.341139 -68.058656
vt 0.000000 0.000000
vt 0.086415 0.000000
vt 0.000000 1.000000
vt 0.086415 1.000000
vt 0.000000 0.000000
vt 0.086415 0.000000
vt 0.086415 1.000000
vt 0.000000 1.000000
vt 0.000000 0.000000
vt 0.086415 0.000000
vt 0.086415 1.000000
vt 0.000000 1.000000
vn 0.000000 -1.000000 0.000000
vn 0.000000 -1.000000 0.000000
vn 0.000000 -1.000000 0.000000
vn 0.000000 -1.000000 0.000000
vn 1.000000 0.000000 0.000000
vn 1.000000 0.000000 0.000000
vn 1.000000 0.000000 0.000000
vn 1.000000 0.000000 0.000000
vn -1.000000 0.000000 0.000000
vn -1.000000 0.000000 0.000000
vn -1.000000 0.000000 0.000000
vn -1.000000 0.000000 0.000000
s 1
g track pPlane1
usemtl lambert2SG
f 52/79/105 50/78/106 51/80/107
f 51/80/107 50/78/106 49/77/108
s 2
usemtl initialShadingGroup
f 55/83/109 54/82/110 52/76/111
f 52/76/111 54/82/110 50/74/112
s 3
f 53/81/113 56/84/114 49/73/115
f 49/73/115 56/84/114 51/75/116
g default
v 82.009653 -1.006229 45.441579
v 99.757519 -1.006229 45.441579
v 82.009653 -1.006229 -68.058656
v 99.757519 -1.006229 -68.058656
v 82.009653 4.341139 45.441579
v 99.757519 4.341139 45.441579
v 99.757519 4.341139 -68.058656
v 81.917586 4.357214 -67.859652
vt 0.000000 0.000000
vt 0.086415 0.000000
vt 0.000000 1.000000
vt 0.086415 1.000000
vt 0.000000 0.000000
vt 0.086415 0.000000
vt 0.086415 1.000000
vt 0.000000 1.000000
vt 0.000000 0.000000
vt 0.086415 0.000000
vt 0.086415 1.000000
vt 0.000000 1.000000
vn 0.000000 -1.000000 0.000000
vn 0.000000 -1.000000 0.000000
vn 0.000000 -1.000000 0.000000
vn 0.000000 -1.000000 0.000000
vn 1.000000 0.000000 0.000000
vn 1.000000 0.000000 0.000000
vn 1.000000 0.000000 0.000000
vn 1.000000 0.000000 0.000000
vn -0.999853 -0.017163 0.000000
vn -0.999963 -0.008582 0.000406
vn -0.999963 -0.008582 0.000406
vn -1.000000 0.000000 0.000813
s 1
g track pPlane2
usemtl lambert2SG
f 60/91/117 58/90/118 59/92/119
f 59/92/119 58/90/118 57/89/120
s 2
usemtl initialShadingGroup
f 63/95/121 62/94/122 60/88/123
f 60/88/123 62/94/122 58/86/124
s 3
f 59/87/125 57/85/126 64/96/127
f 64/96/127 57/85/126 61/93/128
g default
v 45.248271 -1.236501 99.015533
v 28.295499 -1.236501 95.632342
v 13.002199 -1.236501 87.191588
v 0.865355 -1.236501 75.681153
v -6.926969 -1.236501 61.177140
v -9.340113 -1.006229 45.441579
v 8.407753 -1.006229 45.441579
v 10.260713 -1.236501 55.880763
v 15.361902 -1.236501 65.692385
v 22.925542 -1.236501 74.238203
v 33.123969 -1.236501 79.854299
v 45.248271 -1.236501 82.996317
v 45.248271 4.357214 99.015533
v 28.295499 4.357214 95.632327
v 33.123969 4.357214 79.854299
v 45.248271 4.357214 82.996317
v 13.002199 4.357214 87.191588
v 22.925542 4.357214 74.238203
v 0.865355 4.357214 75.681153
v 15.361902 4.357215 65.692385
v -6.926969 4.357214 61.177140
v 10.260713 4.357214 55.880759
v -9.340113 4.341139 45.441579
v 8.407753 4.341139 45.441579
v 45.248275 4.357214 99.015533
v 62.201052 4.357214 95.632327
v 57.372585 4.357214 79.854299
v 45.248275 4.357214 82.996325
v 77.494352 4.357214 87.191588
v 67.571005 4.357214 74.238203
v 89.631196 4.357214 75.681153
v 75.134644 4.357215 65.692385
v 97.423524 4.357214 61.177140
v 80.235838 4.357214 55.880759
v 99.757524 4.341139 45.441579
v 82.009654 4.341139 45.441579
v 45.248275 -1.236501 99.015549
v 45.248275 -1.236501 82.996333
v 57.372585 -1.236501 79.854299
v 62.201052 -1.236501 95.632342
v 67.571005 -1.236501 74.238203
v 77.494352 -1.236501 87.191588
v 75.134644 -1.236501 65.692385
v 89.631179 -1.236501 75.681153
v 80.235838 -1.236501 55.880763
v 97.423524 -1.236501 61.177140
v 82.009654 -1.006229 45.441579
v 99.757524 -1.006229 45.441579
vt 0.343750 0.843750
vt 0.351397 0.892034
vt 0.373591 0.935591
vt 0.408159 0.970159
vt 0.451716 0.992353
vt 0.500000 1.000000
vt 0.395561 0.841678
vt 0.400350 0.874069
vt 0.414879 0.903552
vt 0.436422 0.929335
vt 0.465468 0.948248
vt 0.500000 0.955212
vt 0.500000 1.000000
vt 0.451716 0.992353
vt 0.465468 0.948248
vt 0.500000 0.955212
vt 0.408159 0.970159
vt 0.436422 0.929335
vt 0.373591 0.935591
vt 0.414879 0.903552
vt 0.351397 0.892034
vt 0.400350 0.874069
vt 0.343750 0.843750
vt 0.395561 0.841678
vt 0.500000 1.000000
vt 0.451716 0.992353
vt 0.465468 0.948248
vt 0.500000 0.955212
vt 0.408159 0.970159
vt 0.436422 0.929335
vt 0.373591 0.935591
vt 0.414879 0.903552
vt 0.351397 0.892034
vt 0.400350 0.874069
vt 0.343750 0.843750
vt 0.395561 0.841678
vt 0.500000 1.000000
vt 0.451716 0.992353
vt 0.465468 0.948248
vt 0.500000 0.955212
vt 0.408159 0.970159
vt 0.436422 0.929335
vt 0.373591 0.935591
vt 0.414879 0.903552
vt 0.351397 0.892034
vt 0.400350 0.874069
vt 0.343750 0.843750
vt 0.395561 0.841678
vt 0.500000 1.000000
vt 0.500000 0.955212
vt 0.465468 0.948248
vt 0.451716 0.992353
vt 0.436422 0.929335
vt 0.408159 0.970159
vt 0.414879 0.903552
vt 0.373591 0.935591
vt 0.400350 0.874069
vt 0.351397 0.892034
vt 0.395561 0.841678
vt 0.343750 0.843750
vt 0.500000 1.000000
vt 0.451716 0.992353
vt 0.465468 0.948248
vt 0.500000 0.955212
vt 0.408159 0.970159
vt 0.436422 0.929335
vt 0.373591 0.935591
vt 0.414879 0.903552
vt 0.351397 0.892034
vt 0.400350 0.874069
vt 0.343750 0.843750
vt 0.395561 0.841678
vn 0.000000 1.000000 0.000000
vn 0.000000 1.000000 0.000000
vn 0.000000 1.000000 0.000000
vn 0.000000 1.000000 -0.000000
vn 0.000000 1.000000 -0.000000
vn 0.000000 1.000000 -0.000000
vn 0.000000 1.000000 -0.000000
vn 0.000000 1.000000 0.000000
vn 0.001435 0.999988 0.004657
vn 0.001435 0.999927 0.012009
vn 0.002153 0.999835 0.018013
vn 0.000000 0.999757 0.022053
vn 0.195707 -0.000003 -0.980662
vn 0.195707 -0.000001 -0.980662
vn 0.195707 -0.000001 -0.980662
vn 0.195707 0.000000 -0.980662
vn -0.250863 -0.000000 0.968022
vn -0.250863 -0.000000 0.968022
vn -0.250863 -0.000000 0.968022
vn -0.250863 -0.000000 0.968022
vn 0.483211 0.000000 -0.875504
vn 0.483212 -0.000001 -0.875504
vn 0.483212 -0.000001 -0.875504
vn 0.483212 -0.000002 -0.875503
vn -0.482378 -0.000000 0.875963
vn -0.482378 -0.000000 0.875963
vn -0.482378 -0.000000 0.875963
vn -0.482378 -0.000000 0.875963
vn 0.688134 0.000000 -0.725583
vn 0.688134 0.000000 -0.725583
vn 0.688134 0.000000 -0.725583
vn 0.688134 0.000000 -0.725583
vn -0.748828 -0.000000 0.662764
vn -0.748828 -0.000000 0.662764
vn -0.748828 -0.000000 0.662764
vn -0.748828 -0.000000 0.662764
vn 0.880915 0.000000 -0.473274
vn 0.880915 0.000000 -0.473274
vn 0.880915 0.000000 -0.473274
vn 0.880915 0.000000 -0.473274
vn -0.887248 -0.000000 0.461292
vn -0.887248 -0.000000 0.461292
vn -0.887248 -0.000000 0.461292
vn -0.887248 -0.000000 0.461292
vn 0.988444 0.000000 -0.151584
vn 0.988444 0.000000 -0.151584
vn 0.988444 0.000000 -0.151584
vn 0.988444 0.000000 -0.151584
vn -0.984610 -0.000000 0.174769
vn -0.984610 -0.000000 0.174769
vn -0.984610 -0.000000 0.174769
vn -0.984610 -0.000000 0.174769
vn 0.000000 1.000000 0.000000
vn 0.000000 1.000000 -0.000000
vn 0.000000 1.000000 -0.000000
vn 0.000000 1.000000 -0.000000
vn 0.000000 1.000000 0.000000
vn 0.000000 1.000000 -0.000000
vn 0.000000 1.000000 -0.000000
vn 0.000000 1.000000 -0.000000
vn -0.001437 0.999988 0.004664
vn -0.001437 0.999927 0.012016
vn -0.002156 0.999835 0.018023
vn 0.000000 0.999757 0.022053
vn -0.195707 -0.000003 -0.980662
vn -0.195707 -0.000003 -0.980662
vn -0.195707 -0.000003 -0.980662
vn -0.195707 -0.000003 -0.980662
vn 0.250864 0.000001 0.968022
vn 0.250864 0.000001 0.968022
vn 0.250864 0.000001 0.968022
vn 0.250865 -0.000000 0.968022
vn -0.483211 0.000000 -0.875504
vn -0.483212 -0.000001 -0.875504
vn -0.483212 -0.000001 -0.875504
vn -0.483212 -0.000003 -0.875503
vn 0.482378 -0.000000 0.875963
vn 0.482378 -0.000000 0.875963
vn 0.482378 -0.000000 0.875963
vn 0.482378 -0.000000 0.875963
vn -0.688134 0.000001 -0.725583
vn -0.688135 0.000001 -0.725583
vn -0.688135 0.000001 -0.725583
vn -0.688135 0.000000 -0.725583
vn 0.748828 -0.000000 0.662764
vn 0.748828 -0.000000 0.662764
vn 0.748828 -0.000000 0.662764
vn 0.748828 -0.000000 0.662764
vn -0.880915 0.000000 -0.473275
vn -0.880915 0.000001 -0.473275
vn -0.880915 0.000001 -0.473275
vn -0.880915 0.000001 -0.473275
vn 0.887248 -0.000000 0.461292
vn 0.887248 0.000000 0.461292
vn 0.887248 0.000000 0.461292
vn 0.887248 0.000000 0.461292
vn -0.989178 0.000000 -0.146721
vn -0.989178 0.000000 -0.146721
vn -0.989178 0.000000 -0.146721
vn -0.989178 0.000000 -0.146721
vn 0.985869 -0.000000 0.167518
vn 0.985869 -0.000000 0.167518
vn 0.985869 -0.000000 0.167518
vn 0.985869 -0.000000 0.167518
s 1
g track pCylinder2
usemtl lambert2SG
f 65/109/129 76/112/130 66/110/131
f 66/110/131 76/112/130 75/111/132
f 66/110/131 75/111/132 67/113/133
f 67/113/133 75/111/132 74/114/134
f 67/113/133 74/114/134 68/115/135
f 68/115/135 74/114/134 73/116/136
f 68/115/135 73/116/136 69/117/137
f 69/117/137 73/116/136 72/118/138
f 69/117/137 72/118/138 70/119/139
f 70/119/139 72/118/138 71/120/140
s 2
usemtl initialShadingGroup
f 78/122/141 77/121/142 66/101/143
f 66/101/143 77/121/142 65/102/144
s 3
f 80/124/145 79/123/146 76/108/147
f 76/108/147 79/123/146 75/107/148
s 4
f 81/125/149 78/122/150 67/100/151
f 67/100/151 78/122/150 66/101/152
s 5
f 79/123/153 82/126/154 75/107/155
f 75/107/155 82/126/154 74/106/156
s 6
f 83/127/157 81/125/158 68/99/159
f 68/99/159 81/125/158 67/100/160
s 7
f 82/126/161 84/128/162 74/106/163
f 74/106/163 84/128/162 73/105/164
s 8
f 85/129/165 83/127/166 69/98/167
f 69/98/167 83/127/166 68/99/168
s 9
f 84/128/169 86/130/170 73/105/171
f 73/105/171 86/130/170 72/104/172
s 10
f 69/98/173 70/97/174 85/129/175
f 85/129/175 70/97/174 87/131/176
s 11
f 88/132/177 71/103/178 86/130/179
f 86/130/179 71/103/178 72/104/180
s 12
usemtl lambert2SG
f 101/145/181 104/148/182 102/146/183
f 102/146/183 104/148/182 103/147/184
f 104/148/182 106/150/185 103/147/184
f 103/147/184 106/150/185 105/149/186
f 106/150/185 108/152/187 105/149/186
f 105/149/186 108/152/187 107/151/188
f 108/152/187 110/154/189 107/151/188
f 107/151/188 110/154/189 109/153/190
f 110/154/189 112/156/191 109/153/190
f 109/153/190 112/156/191 111/155/192
s 13
usemtl initialShadingGroup
f 90/134/193 104/158/194 89/133/195
f 89/133/195 104/158/194 101/157/196
s 14
f 92/136/197 102/160/198 91/135/199
f 91/135/199 102/160/198 103/159/200
s 15
f 93/137/201 106/161/202 90/134/203
f 90/134/203 106/161/202 104/158/204
s 16
f 91/135/205 103/159/206 94/138/207
f 94/138/207 103/159/206 105/162/208
s 17
f 95/139/209 108/163/210 93/137/211
f 93/137/211 108/163/210 106/161/212
s 18
f 94/138/213 105/162/214 96/140/215
f 96/140/215 105/162/214 107/164/216
s 19
f 97/141/217 110/165/218 95/139/219
f 95/139/219 110/165/218 108/163/220
s 20
f 96/140/221 107/164/222 98/142/223
f 98/142/223 107/164/222 109/166/224
s 21
f 110/165/225 97/141/226 112/167/227
f 112/167/227 97/141/226 99/143/228
s 22
f 109/166/229 111/168/230 98/142/231
f 98/142/231 111/168/230 100/144/232
